<?xml version="1.0" encoding="utf-8"?>
<!-- Generator: Adobe Illustrator 25.2.1, SVG Export Plug-In . SVG Version: 6.00 Build 0)  -->
<svg version="1.1" id="Capa_1" xmlns="http://www.w3.org/2000/svg" xmlns:xlink="http://www.w3.org/1999/xlink" x="0px" y="0px"
	 viewBox="0 0 1080 1080" style="enable-background:new 0 0 1080 1080;" xml:space="preserve">
<g fill="#0F2646">
	<path class="st0" d="M541.8,469.1c-38.8,0-70.3,31.5-70.3,70.3c0,38.8,31.5,70.3,70.3,70.3s70.3-31.5,70.3-70.3
		C612.2,500.7,580.6,469.1,541.8,469.1z"/>
	<path class="st0" d="M629,358.5H451c-50.7,0-92,41.3-92,92v178c0,50.7,41.3,92,92,92h178c50.7,0,92-41.3,92-92v-178
		C721,399.8,679.7,358.5,629,358.5z M541.8,649.3C481.3,649.3,432,600,432,539.5c0-60.5,49.2-109.8,109.8-109.8
		c60.5,0,109.8,49.2,109.8,109.8C651.6,600,602.4,649.3,541.8,649.3z M658,448.4c-14.4,0-26.1-11.7-26.1-26.1
		c0-14.4,11.7-26.1,26.1-26.1c14.4,0,26.1,11.7,26.1,26.1C684.2,436.7,672.5,448.4,658,448.4z"/>
	<path class="st0" d="M540,159.8C330,159.8,159.8,330,159.8,540c0,210,170.2,380.2,380.2,380.2c210,0,380.2-170.2,380.2-380.2
		C920.2,330,750,159.8,540,159.8z M762.9,628.5c0,73.8-60.1,133.9-133.9,133.9H451c-73.8,0-133.9-60.1-133.9-133.9v-178
		c0-73.8,60.1-133.9,133.9-133.9h178c73.8,0,133.9,60.1,133.9,133.9V628.5z"/>
</g>
</svg>
