<svg id="Layer_1" data-name="Layer 1" xmlns="http://www.w3.org/2000/svg" viewBox="0 0 466 431.28"><defs><style>.cls-1{fill:#fff;}</style></defs><path class="cls-1" d="M261.65,298.5,435.3,198.25,353.63,151.1,180,251.35Zm0,0" transform="translate(-81 -98)"/><path class="cls-1" d="M255,310.63,81,210.37V410.9L255,511.16Zm0,0" transform="translate(-81 -98)"/><rect class="cls-1" x="328" y="315.28" width="19" height="19"/><path class="cls-1" d="M269,310.63V511.16l95-54.93V311.46a30,30,0,0,1,29.89-30.18H418.8a24.54,24.54,0,0,1,23.42-18H442V210.37Zm0,0" transform="translate(-81 -98)"/><path class="cls-1" d="M442.16,277.28h40.68A10.16,10.16,0,0,1,493,287.45v.67a10.16,10.16,0,0,1-10.16,10.16H442.16A10.16,10.16,0,0,1,432,288.12v-.67a10.16,10.16,0,0,1,10.16-10.17Zm0,0" transform="translate(-81 -98)"/><path class="cls-1" d="M339.63,143l-78-45L88,198.25l78,45Zm0,0" transform="translate(-81 -98)"/><path class="cls-1" d="M530.91,295.28H505.73a23.93,23.93,0,0,1-23.14,17H442.22a24,24,0,0,1-23.15-17H393.89A16,16,0,0,0,378,311.46V513.57a15.62,15.62,0,0,0,15.89,15.71h137A15.78,15.78,0,0,0,547,513.57V311.46a16.19,16.19,0,0,0-16.09-16.18ZM395,342.32a7,7,0,0,1,6.95-7h33a7.1,7.1,0,0,1,7.07,7V347a7,7,0,0,1-7,7,6.72,6.72,0,0,1-6.65-4.73H409v19h.28a7,7,0,0,1,0,14H402a6.95,6.95,0,0,1-6.95-7Zm0,64a7,7,0,0,1,7-7h33a7,7,0,0,1,7,7v33a7,7,0,0,1-7,7H402a7,7,0,0,1-7-7Zm14.28,104H402a6.76,6.76,0,0,1-6.95-6.75v-33a7.19,7.19,0,0,1,6.95-7.27h33a7.3,7.3,0,0,1,7.07,7.27v6.75a7,7,0,0,1-14.07,0H409v19h.28a7,7,0,0,1,0,14ZM460.94,483l-25.45,25.46a7,7,0,0,1-9.9,0L414.4,497.29a7,7,0,0,1,9.9-9.9l6.23,6.24L451,473.13a7,7,0,0,1,9.9,9.9Zm0-129.25-25.45,25.46a7,7,0,0,1-9.9,0L414.4,368a7,7,0,0,1,9.9-9.9l6.23,6.24L451,343.88a7,7,0,0,1,9.9,9.9Zm61.92,140.51h-44a7,7,0,0,1,0-14h44a7,7,0,0,1,0,14Zm0-64h-44a7,7,0,0,1,0-14h44a7,7,0,0,1,0,14Zm0-64h-44a7,7,0,0,1,0-14h44a7,7,0,0,1,0,14Zm0,0" transform="translate(-81 -98)"/></svg>