<svg id="Layer_1" data-name="Layer 1" xmlns="http://www.w3.org/2000/svg" viewBox="0 0 372 372"><defs><style>.cls-1{fill:#fff;}</style></defs><path class="cls-1" d="M467.37,209c-3,3.69-5.69,6.94-8,9.58A173.88,173.88,0,0,1,464.73,401l10.39,6a185.75,185.75,0,0,0-7.75-198Zm0,0" transform="translate(-128 -128)"/><path class="cls-1" d="M314,140c31.61,0,63.1,8.89,93.7,26.22,2.94-3.48,5.6-6.62,7.92-9.31C382.56,137.79,348.4,128,314,128a185.87,185.87,0,0,0-93,24.9l6,10.38A173.87,173.87,0,0,1,314,140Zm0,0" transform="translate(-128 -128)"/><path class="cls-1" d="M379.77,308a158.64,158.64,0,0,0-3.38-24.92l-16.5,12.83L368.52,308Zm0,0" transform="translate(-128 -128)"/><path class="cls-1" d="M445.85,320h-54a188.85,188.85,0,0,1-17.48,72h46a131.31,131.31,0,0,0,25.44-72Zm0,0" transform="translate(-128 -128)"/><path class="cls-1" d="M402.5,262.77,386.83,275a178.72,178.72,0,0,1,4.94,33h48.42Zm0,0" transform="translate(-128 -128)"/><path class="cls-1" d="M334.82,301.66l31.25,26.78.95-1.89-23.78-33.3Zm0,0" transform="translate(-128 -128)"/><path class="cls-1" d="M379.26,328.91l-9.33,18.65L337.78,320H248.27c1,27.12,8.83,51.79,18.93,72h93.61a179.76,179.76,0,0,0,18.45-63.09Zm0,0" transform="translate(-128 -128)"/><path class="cls-1" d="M182.15,308h54a188.85,188.85,0,0,1,17.48-72h-46a131.31,131.31,0,0,0-25.44,72Zm0,0" transform="translate(-128 -128)"/><path class="cls-1" d="M340.84,266H284v2.68l41.13,25.71,19.63-19.64,8.14,11.4,41.91-32.6-5.26-6.31,40.6-33.84a16.42,16.42,0,0,1,15.19-3.84,16,16,0,0,1,4.32,2C465.34,193.22,488,163,488,152c0-2.57-.66-5.8-5.88-8s-12.6-2.33-20.32-1.07a26.19,26.19,0,0,1,1.57,23.71A6,6,0,0,1,458,170a6,6,0,0,1-5.35-8.68c.32-.72,3-7.44-3.24-15.14-6.82,2.46-13,5.93-17.16,10.06-7.34,7.34-61.81,73.56-89.6,107.56ZM440,176a6,6,0,1,1-6,6,6,6,0,0,1,6-6Zm-18,18a6,6,0,1,1-6,6,6,6,0,0,1,6-6Zm-18,18a6,6,0,1,1-6,6,6,6,0,0,1,6-6Zm0,0" transform="translate(-128 -128)"/><path class="cls-1" d="M314,446c7,0,24.89-16.06,40.27-42H273.73C289.11,429.94,307,446,314,446Zm0,0" transform="translate(-128 -128)"/><path class="cls-1" d="M248.26,308h75.52l-1.34-1.15L272,275.32V254h63.16c2.67-3.28,8-9.76,14.74-18H267.19c-10.1,20.21-17.89,44.88-18.93,72Zm0,0" transform="translate(-128 -128)"/><path class="cls-1" d="M207.6,392h46a188.66,188.66,0,0,1-17.47-72h-54a131.15,131.15,0,0,0,25.44,72Zm0,0" transform="translate(-128 -128)"/><path class="cls-1" d="M259.62,404H217.56a132,132,0,0,0,71.51,39.61c-9.84-9.38-20.37-23-29.45-39.61Zm0,0" transform="translate(-128 -128)"/><path class="cls-1" d="M463.22,310.68l-17-85.1c-.86-2.35-2.34-4-4-4.46-1.34-.36-2.76.11-4.24,1.39l-31.5,26.25,53.12,63.74Zm0,0" transform="translate(-128 -128)"/><path class="cls-1" d="M338.93,443.61A132,132,0,0,0,410.44,404H368.38c-9.08,16.64-19.61,30.23-29.45,39.61Zm0,0" transform="translate(-128 -128)"/><path class="cls-1" d="M289.07,184.39A132,132,0,0,0,217.56,224h42.06c9.08-16.64,19.61-30.23,29.45-39.61Zm0,0" transform="translate(-128 -128)"/><path class="cls-1" d="M390.25,187.09l-72.66-4.84-1.74,3.46L366.34,216c7.78-9.44,16.08-19.48,23.91-28.92Zm0,0" transform="translate(-128 -128)"/><path class="cls-1" d="M273.73,224h82.61l-56.17-33.7c-8,7.17-17.58,18.76-26.44,33.7Zm0,0" transform="translate(-128 -128)"/><path class="cls-1" d="M152.9,221a186.22,186.22,0,0,0-.1,185.88l10.4-6A174.17,174.17,0,0,1,163.29,227Zm0,0" transform="translate(-128 -128)"/><path class="cls-1" d="M314,488a174,174,0,0,1-87-23.27l-6,10.38a186.26,186.26,0,0,0,185.88.09l-6-10.4A174,174,0,0,1,314,488Zm0,0" transform="translate(-128 -128)"/><path class="cls-1" d="M212,440a24,24,0,1,1-24-24,24,24,0,0,1,24,24Zm0,0" transform="translate(-128 -128)"/><path class="cls-1" d="M464,440a24,24,0,1,1-24-24,24,24,0,0,1,24,24Zm0,0" transform="translate(-128 -128)"/><path class="cls-1" d="M212,188a24,24,0,1,1-24-24,24,24,0,0,1,24,24Zm0,0" transform="translate(-128 -128)"/></svg>