<?xml version="1.0" encoding="utf-8"?>
<!-- Generator: Adobe Illustrator 25.2.1, SVG Export Plug-In . SVG Version: 6.00 Build 0)  -->
<svg version="1.1" id="Capa_1" xmlns="http://www.w3.org/2000/svg" xmlns:xlink="http://www.w3.org/1999/xlink" x="0px" y="0px"
	 viewBox="0 0 1080 1080" style="enable-background:new 0 0 1080 1080;" xml:space="preserve">
<g fill="#0F2646">
	<path class="st0" d="M325,557.3c6.9,86,64.3,157.9,142.5,185.9c-27.9-41.7-46-107.9-48.3-185.9H325z"/>
	<path class="st0" d="M453.7,557.3c3.9,117.8,47.2,198.5,86.3,198.5c39.1,0,82.4-80.7,86.3-198.5H453.7z"/>
	<path class="st0" d="M467.5,336.8c-78.2,28-135.7,99.9-142.5,185.9h94.2C421.5,444.6,439.6,378.4,467.5,336.8z"/>
	<path class="st0" d="M540,159.8C330,159.8,159.8,330,159.8,540c0,210,170.2,380.2,380.2,380.2c210,0,380.2-170.2,380.2-380.2
		C920.2,330,750,159.8,540,159.8z M540,790.3C402,790.3,289.7,678,289.7,540c0-138,112.3-250.3,250.3-250.3
		c138,0,250.3,112.3,250.3,250.3C790.3,678,678,790.3,540,790.3z"/>
	<path class="st0" d="M612.5,743.2c78.2-28,135.7-99.9,142.5-185.9h-94.2C658.5,635.4,640.4,701.6,612.5,743.2z"/>
	<path class="st0" d="M626.3,522.7c-3.9-117.8-47.2-198.5-86.3-198.5c-39.1,0-82.4,80.7-86.3,198.5H626.3z"/>
	<path class="st0" d="M612.5,336.8c27.9,41.7,46,107.9,48.3,185.9H755C748.2,436.7,690.7,364.8,612.5,336.8z"/>
</g>
</svg>
