<?xml version="1.0" encoding="utf-8"?>
<!-- Generator: Adobe Illustrator 25.2.1, SVG Export Plug-In . SVG Version: 6.00 Build 0)  -->
<svg version="1.1" id="Designed_by_Freepik" xmlns="http://www.w3.org/2000/svg" xmlns:xlink="http://www.w3.org/1999/xlink"
	 x="0px" y="0px" viewBox="0 0 65.7 125.6" style="enable-background:new 0 0 65.7 125.6;" xml:space="preserve">
<style type="text/css">
	.st0{fill:#31190E;}
</style>
<path class="st0" d="M65.7,19.6c0-0.2,0-0.4,0-0.6c0-0.2,0-0.4-0.1-0.5c0-0.1,0-0.1,0-0.2c-0.1-0.3-0.1-0.6-0.2-0.9
	c0-0.1,0-0.1-0.1-0.2c-0.1-0.3-0.2-0.6-0.4-0.8c0-0.1-0.1-0.1-0.1-0.2c-0.1-0.3-0.3-0.5-0.4-0.8c0-0.1-0.1-0.1-0.1-0.2
	c-0.1-0.2-0.2-0.3-0.3-0.5c-0.7-1.1-1.5-2.1-2.2-3.1c-0.1-0.1-0.2-0.2-0.2-0.3c-0.1-0.2-0.3-0.4-0.4-0.6c-0.1-0.1-0.1-0.2-0.2-0.3
	c-0.1-0.2-0.3-0.5-0.4-0.7c0-0.1-0.1-0.2-0.1-0.3c-0.1-0.2-0.2-0.5-0.3-0.7C60,8.6,60,8.5,59.9,8.3c-0.1-0.2-0.1-0.4-0.2-0.6
	c-0.1-0.2-0.1-0.3-0.1-0.5c-0.1-0.6-0.1-1.2-0.2-1.8c0.2-0.2,0.3-0.5,0.3-0.7c0-2.6-12-4.7-26.8-4.7S6,2.1,6,4.7
	c0,0.2,0.1,0.5,0.3,0.7C6.1,6.5,6,7.6,5.6,8.7c0,0.1-0.1,0.2-0.1,0.3C5.4,9.2,5.3,9.3,5.2,9.5C5.1,9.6,5.1,9.8,5,9.9
	c-0.1,0.2-0.2,0.3-0.3,0.5c-0.1,0.1-0.1,0.2-0.2,0.4c-0.1,0.2-0.2,0.4-0.4,0.5C4,11.5,4,11.6,3.9,11.7c-0.1,0.2-0.2,0.3-0.4,0.5
	c-0.1,0.1-0.2,0.3-0.3,0.4C3.1,12.7,3,12.9,2.9,13c-0.2,0.3-0.4,0.6-0.6,0.9c0,0-0.1,0.1-0.1,0.1C1,15.7,0,17.4,0,19.6c0,0,0,0,0,0
	c0,0,0,0,0,0c0,0,0,0.2,0,0.6c0,7.9,0,92.3,0,92.3c0,0.2,0.1,0.4,0.1,0.5c0.2,1.5,1.6,2.8,4,3.8c0.7,0.4,1.5,0.8,2.2,1.2
	c0.1,0.1,0.2,0.1,0.3,0.2c0.4,0.2,0.5,0.7,0.7,1.1c0,0.1,0.1,0.2,0.1,0.3c0,0.1,0.1,0.2,0.1,0.2c0.2,0.5,0.5,1.1,0.8,1.5
	c0.7,0.8,2.4,1.6,4.9,2.2c1.9,0.5,4.3,1,7.1,1.3c3.7,0.5,8,0.7,12.6,0.7c5.3,0,10.2-0.3,14.2-0.9c4.2-0.6,7.4-1.5,9.2-2.5
	c0.5-0.3,0.9-0.6,1.1-0.9c0.3-0.4,0.6-0.9,0.8-1.5c0-0.1,0.1-0.2,0.1-0.2c0-0.1,0.1-0.2,0.1-0.3c0.2-0.4,0.3-0.8,0.7-1.1
	c0.1-0.1,0.2-0.1,0.3-0.2c0.7-0.4,1.5-0.8,2.2-1.2c2.3-1.1,3.8-2.3,4-3.8c0.1-0.2,0.1-0.3,0.1-0.5c0-0.1,0-84.5,0-92.3
	C65.7,19.8,65.7,19.6,65.7,19.6C65.7,19.6,65.7,19.6,65.7,19.6C65.7,19.6,65.7,19.6,65.7,19.6z"/>
</svg>
