<svg id="Designed_by_Freepik" data-name="Designed by Freepik" xmlns="http://www.w3.org/2000/svg" viewBox="0 0 25.2 83.36"><defs><style>.cls-1{fill:#31190e;}</style></defs><path class="cls-1" d="M25.15,75.19s-.1-34.51-.1-37.49-3.34-6.23-4.18-7.57c-1.8-2.54-1.7-7-1.9-10.36s-1-12.1-1-12.1c1-.45.79-1.84.35-2.89s-.75-2.07-.51-2.54h.64A3.29,3.29,0,0,0,17.68,0H7.52l0,0s0,0,0,0a.21.21,0,0,1,0,.06l0,.07a.35.35,0,0,0-.06.09.35.35,0,0,0-.06.09l0,0s0,0,0,0a3.66,3.66,0,0,0-.46,1.8h.63a4,4,0,0,1-.5,2.54c-.45,1-.69,2.44.35,2.89,0,0-.8,8.71-1,12.1s-.1,7.82-1.9,10.36C3.49,31.47.15,34.71.15,37.7S.05,75.19.05,75.19a7.44,7.44,0,0,0,2.34,6.28c1.89,1.69,10.21,1.89,10.21,1.89s8.32-.2,10.21-1.89A7.44,7.44,0,0,0,25.15,75.19Z"/></svg>