<?xml version="1.0" encoding="utf-8"?>
<!-- Generator: Adobe Illustrator 25.2.1, SVG Export Plug-In . SVG Version: 6.00 Build 0)  -->
<svg version="1.1" id="Designed_by_Freepik" xmlns="http://www.w3.org/2000/svg" xmlns:xlink="http://www.w3.org/1999/xlink"
	 x="0px" y="0px" viewBox="0 0 26.4 94.2" style="enable-background:new 0 0 26.4 94.2;" xml:space="preserve">
<style type="text/css">
	.st0{fill:#31190E;}
</style>
<path class="st0" d="M26.4,89.4c0,0,0-2.6,0-6.7c0-7.9,0-21.2,0-31.7c0-8.2,0-14.7,0-15.3c0-2-5.9-12-5.9-12L17.9,6.3
	c1.5-0.3,0.5-1.6,0-2.9c-0.2-0.5-0.2-0.7-0.1-0.9h0.9c0-0.2,0-0.4,0-0.5c0,0,0-0.1,0-0.1c0-0.1,0-0.2-0.1-0.3c0,0,0-0.1,0-0.1
	c0-0.1-0.1-0.2-0.1-0.4c0,0,0,0,0,0c0-0.1-0.1-0.2-0.1-0.3c0,0,0,0,0-0.1c0-0.1-0.1-0.1-0.1-0.2c0,0,0,0,0-0.1
	c0-0.1-0.1-0.1-0.1-0.1c0,0,0,0,0,0c0,0,0,0,0,0v0C18,0.1,17.9,0,17.9,0h-0.4h-4.3H8.5c0,0,0,0,0,0c0,0,0,0,0,0c0,0,0,0-0.1,0.1
	c0,0,0,0,0,0.1c0,0,0,0.1-0.1,0.1c0,0,0,0.1-0.1,0.1c0,0,0,0,0,0.1c0,0,0,0,0,0C8,0.9,7.7,1.6,7.7,2.5h0.9c0.1,0.1,0.1,0.4-0.1,0.9
	C8,4.6,7,6,8.5,6.3L5.9,23.7c0,0-4.5,8.5-5.2,9.9C0.3,34.3,0,35.5,0,37.1c0,0.6,0,6.4,0,13.9h0v31.7h0c0,4,0,6.7,0,6.7
	s-0.5,2.6,3.5,4c3.4,1,9.7,0.9,9.7,0.9s6.3,0.1,9.7-0.9C26.9,92,26.4,89.4,26.4,89.4z"/>
</svg>
